ModelForces
version=1
nRows=4
nColumns=119
inDegrees=no

This file contains the forces exerted on a model during a simulation.

A force is a generalized force, meaning that it can be either a force (N) or a torque (Nm).

Units are S.I. units (second, meters, Newtons, ...)
Angles are in degrees.

endheader
time	semimem_r	semiten_r	bifemlh_r	bifemsh_r	sar_r	grac_r	rect_fem_r	vas_med_r	vas_int_r	vas_lat_r	med_gas_r	lat_gas_r	femur_lat_meniscii_l.femur_lat_l.force.X	femur_lat_meniscii_l.femur_lat_l.force.Y	femur_lat_meniscii_l.femur_lat_l.force.Z	femur_lat_meniscii_l.femur_lat_l.torque.X	femur_lat_meniscii_l.femur_lat_l.torque.Y	femur_lat_meniscii_l.femur_lat_l.torque.Z	femur_lat_meniscii_l.meniscus_lat_l.force.X	femur_lat_meniscii_l.meniscus_lat_l.force.Y	femur_lat_meniscii_l.meniscus_lat_l.force.Z	femur_lat_meniscii_l.meniscus_lat_l.torque.X	femur_lat_meniscii_l.meniscus_lat_l.torque.Y	femur_lat_meniscii_l.meniscus_lat_l.torque.Z	femur_med_meniscii_l.femur_med_l.force.X	femur_med_meniscii_l.femur_med_l.force.Y	femur_med_meniscii_l.femur_med_l.force.Z	femur_med_meniscii_l.femur_med_l.torque.X	femur_med_meniscii_l.femur_med_l.torque.Y	femur_med_meniscii_l.femur_med_l.torque.Z	femur_med_meniscii_l.meniscus_med_l.force.X	femur_med_meniscii_l.meniscus_med_l.force.Y	femur_med_meniscii_l.meniscus_med_l.force.Z	femur_med_meniscii_l.meniscus_med_l.torque.X	femur_med_meniscii_l.meniscus_med_l.torque.Y	femur_med_meniscii_l.meniscus_med_l.torque.Z	femur_lat_meniscii_r.femur_lat_r.force.X	femur_lat_meniscii_r.femur_lat_r.force.Y	femur_lat_meniscii_r.femur_lat_r.force.Z	femur_lat_meniscii_r.femur_lat_r.torque.X	femur_lat_meniscii_r.femur_lat_r.torque.Y	femur_lat_meniscii_r.femur_lat_r.torque.Z	femur_lat_meniscii_r.meniscus_lat_r.force.X	femur_lat_meniscii_r.meniscus_lat_r.force.Y	femur_lat_meniscii_r.meniscus_lat_r.force.Z	femur_lat_meniscii_r.meniscus_lat_r.torque.X	femur_lat_meniscii_r.meniscus_lat_r.torque.Y	femur_lat_meniscii_r.meniscus_lat_r.torque.Z	femur_med_meniscii_r.femur_med_r.force.X	femur_med_meniscii_r.femur_med_r.force.Y	femur_med_meniscii_r.femur_med_r.force.Z	femur_med_meniscii_r.femur_med_r.torque.X	femur_med_meniscii_r.femur_med_r.torque.Y	femur_med_meniscii_r.femur_med_r.torque.Z	femur_med_meniscii_r.meniscus_med_r.force.X	femur_med_meniscii_r.meniscus_med_r.force.Y	femur_med_meniscii_r.meniscus_med_r.force.Z	femur_med_meniscii_r.meniscus_med_r.torque.X	femur_med_meniscii_r.meniscus_med_r.torque.Y	femur_med_meniscii_r.meniscus_med_r.torque.Z	femur_med_tibia_l.tibia_upper_l.force.X	femur_med_tibia_l.tibia_upper_l.force.Y	femur_med_tibia_l.tibia_upper_l.force.Z	femur_med_tibia_l.tibia_upper_l.torque.X	femur_med_tibia_l.tibia_upper_l.torque.Y	femur_med_tibia_l.tibia_upper_l.torque.Z	femur_med_tibia_l.femur_med_l.force.X	femur_med_tibia_l.femur_med_l.force.Y	femur_med_tibia_l.femur_med_l.force.Z	femur_med_tibia_l.femur_med_l.torque.X	femur_med_tibia_l.femur_med_l.torque.Y	femur_med_tibia_l.femur_med_l.torque.Z	femur_lat_tibia_l.tibia_upper_l.force.X	femur_lat_tibia_l.tibia_upper_l.force.Y	femur_lat_tibia_l.tibia_upper_l.force.Z	femur_lat_tibia_l.tibia_upper_l.torque.X	femur_lat_tibia_l.tibia_upper_l.torque.Y	femur_lat_tibia_l.tibia_upper_l.torque.Z	femur_lat_tibia_l.femur_lat_l.force.X	femur_lat_tibia_l.femur_lat_l.force.Y	femur_lat_tibia_l.femur_lat_l.force.Z	femur_lat_tibia_l.femur_lat_l.torque.X	femur_lat_tibia_l.femur_lat_l.torque.Y	femur_lat_tibia_l.femur_lat_l.torque.Z	femur_med_tibia_r.tibia_upper_r.force.X	femur_med_tibia_r.tibia_upper_r.force.Y	femur_med_tibia_r.tibia_upper_r.force.Z	femur_med_tibia_r.tibia_upper_r.torque.X	femur_med_tibia_r.tibia_upper_r.torque.Y	femur_med_tibia_r.tibia_upper_r.torque.Z	femur_med_tibia_r.femur_med_r.force.X	femur_med_tibia_r.femur_med_r.force.Y	femur_med_tibia_r.femur_med_r.force.Z	femur_med_tibia_r.femur_med_r.torque.X	femur_med_tibia_r.femur_med_r.torque.Y	femur_med_tibia_r.femur_med_r.torque.Z	femur_lat_tibia_r.tibia_upper_r.force.X	femur_lat_tibia_r.tibia_upper_r.force.Y	femur_lat_tibia_r.tibia_upper_r.force.Z	femur_lat_tibia_r.tibia_upper_r.torque.X	femur_lat_tibia_r.tibia_upper_r.torque.Y	femur_lat_tibia_r.tibia_upper_r.torque.Z	femur_lat_tibia_r.femur_lat_r.force.X	femur_lat_tibia_r.femur_lat_r.force.Y	femur_lat_tibia_r.femur_lat_r.force.Z	femur_lat_tibia_r.femur_lat_r.torque.X	femur_lat_tibia_r.femur_lat_r.torque.Y	femur_lat_tibia_r.femur_lat_r.torque.Z	aACL_R	pACL_R	aPCL_R	pPCL_R	aMCL_R	aLCL_R	aPCL_L	pPCL_L	aMCL_L	aLCL_L
      0.21047425	      0.00000000	    101.88844586	     49.37667863	    132.37565780	     81.48740693	     60.57417579	     61.25421111	     34.44114427	     31.47181559	     26.64068209	      0.00000000	      0.00000000	     94.60215529	    115.36309277	      6.14782146	      0.54272532	     -1.28001723	     15.39610428	    -94.60215529	   -115.36309277	     -6.14782146	     -3.32998211	      2.85799297	     -2.11654838	     -1.85038739	     18.96578448	      3.37725191	     -1.66234922	      0.50734216	     -3.74402379	      1.85038739	    -18.96578448	     -3.37725191	      0.37963896	      0.05840743	     -0.13587503	     17.93537855	     73.48144685	    -12.15726583	      3.08347874	      0.37447927	      6.80787759	    -17.93537855	    -73.48144685	     12.15726583	      1.99333697	     -0.17173658	      1.90727593	    457.34871452	     97.38005244	   -104.58003217	     43.99568791	    -10.63961758	    182.67232185	   -457.34871452	    -97.38005244	    104.58003217	     -2.84664407	     10.95367703	     -2.42715420	      0.00000000	      0.00000000	      0.00000000	      0.00000000	      0.00000000	      0.00000000	      0.00000000	      0.00000000	      0.00000000	      0.00000000	      0.00000000	      0.00000000	      0.00000000	      0.00000000	      0.00000000	      0.00000000	      0.00000000	      0.00000000	      0.00000000	      0.00000000	      0.00000000	      0.00000000	      0.00000000	      0.00000000	   -178.79853545	   -279.39879994	    187.85503750	     -5.78441850	      7.52223815	      5.67783785	    178.79853545	    279.39879994	   -187.85503750	     80.19259751	     -3.92542928	     70.49269078	      0.00000000	      0.00000000	      0.00000000	      0.00000000	      0.00000000	      0.00000000	      0.00000000	      0.00000000	      0.00000000	      0.00000000	      0.00000000	      0.00000000	      0.00000000	      0.00000000	    710.26837567	     96.80618007	      0.00000000	      0.00000000	     22.14028089	      0.00000000	     47.88755795	    165.34773745
      0.21149035	      0.00000000	    104.18372362	     50.25101426	    139.55290684	     83.94997050	     62.65735012	     69.66949654	     35.50966766	      0.00000000	     25.41637870	      0.00000000	      0.00000000	     94.31940001	    113.81535383	      6.19716013	      0.49797569	     -1.26182819	     15.34956251	    -94.31940001	   -113.81535383	     -6.19716013	     -3.28355027	      2.84910001	     -2.10513795	     -1.79094723	     18.64876283	      3.31749734	     -1.63008518	      0.50387205	     -3.69623038	      1.79094723	    -18.64876283	     -3.31749734	      0.37306894	      0.05625866	     -0.13105059	     17.51119394	     66.77176191	    -12.18512868	      3.27514423	      0.36044991	      6.68336024	    -17.51119394	    -66.77176191	     12.18512868	      1.78683892	     -0.15411012	      1.72188871	    471.91161669	     42.85067943	   -117.90779056	     48.15965227	    -11.10022045	    189.07631281	   -471.91161669	    -42.85067943	    117.90779056	     -2.05590800	     11.65390791	     -4.35044971	      0.00000000	      0.00000000	      0.00000000	      0.00000000	      0.00000000	      0.00000000	      0.00000000	      0.00000000	      0.00000000	      0.00000000	      0.00000000	      0.00000000	      0.00000000	      0.00000000	      0.00000000	      0.00000000	      0.00000000	      0.00000000	      0.00000000	      0.00000000	      0.00000000	      0.00000000	      0.00000000	      0.00000000	   -244.07160697	   -330.19509894	    283.89161010	     -8.04776603	     11.26197584	      6.17992524	    244.07160697	    330.19509894	   -283.89161010	    120.13673271	     -5.67269971	     96.68780585	      0.00000000	      0.00000000	      0.00000000	      0.00000000	      0.00000000	      0.00000000	      0.00000000	      0.00000000	      0.00000000	      0.00000000	      0.00000000	      0.00000000	      0.00000000	      0.00000000	    716.95767636	    109.08843627	      0.00000000	      0.00000000	     22.18906068	      0.00000000	     47.74396229	    164.28531464
      0.21250646	      0.00000000	    107.03660981	     51.54804498	    146.32965615	     86.08869677	     64.54725087	     79.80525114	     35.80895276	      0.00000000	     23.67902900	      0.00000000	      0.00000000	     94.11389640	    112.27403151	      6.28203354	      0.43963691	     -1.23862982	     15.33497794	    -94.11389640	   -112.27403151	     -6.28203354	     -3.23605027	      2.84203128	     -2.09706547	     -1.73310378	     18.38578533	      3.28340533	     -1.60882366	      0.50422727	     -3.65701049	      1.73310378	    -18.38578533	     -3.28340533	      0.36819813	      0.05457687	     -0.12692254	     13.96146822	     51.16620008	     -9.87424495	      2.73115420	      0.28484675	      5.34178301	    -13.96146822	    -51.16620008	      9.87424495	      1.36167178	     -0.11595823	      1.32032067	    470.93940452	     -5.06578089	   -124.70319734	     49.84939170	    -11.13383397	    189.15835138	   -470.93940452	      5.06578089	    124.70319734	     -1.30057260	     11.84623213	     -5.84353998	      0.00000000	      0.00000000	      0.00000000	      0.00000000	      0.00000000	      0.00000000	      0.00000000	      0.00000000	      0.00000000	      0.00000000	      0.00000000	      0.00000000	      0.00000000	      0.00000000	      0.00000000	      0.00000000	      0.00000000	      0.00000000	      0.00000000	      0.00000000	      0.00000000	      0.00000000	      0.00000000	      0.00000000	   -209.72601578	   -248.35419104	    267.59528273	     -7.01782558	     10.44957076	      4.20308595	    209.72601578	    248.35419104	   -267.59528273	    112.44653634	     -5.05955610	     83.42841468	      0.00000000	      0.00000000	      0.00000000	      0.00000000	      0.00000000	      0.00000000	      0.00000000	      0.00000000	      0.00000000	      0.00000000	      0.00000000	      0.00000000	      0.00000000	      0.00000000	    725.02353164	    120.94515003	      0.00000000	      0.00000000	     22.24699053	      0.00000000	     47.61929724	    163.25962454
      0.21352257	      0.00000000	    109.18210083	     52.67734059	    149.47986166	     86.94695880	     65.39421848	     91.97920040	     35.70020801	      3.70393409	     21.75378273	      0.00000000	      0.00000000	     93.96033653	    110.74293673	      6.43610757	      0.35502402	     -1.20376049	     15.34152245	    -93.96033653	   -110.74293673	     -6.43610757	     -3.18640752	      2.83597747	     -2.09108455	     -1.65361061	     18.11432218	      3.25230480	     -1.58852756	      0.50551932	     -3.60730082	      1.65361061	    -18.11432218	     -3.25230480	      0.36324222	      0.05252062	     -0.12379478	     10.14716494	     37.37703038	     -7.02291265	      1.91413541	      0.20942667	      3.87717697	    -10.14716494	    -37.37703038	      7.02291265	      1.00504348	     -0.09001779	      0.97615681	    477.32966933	     18.71621298	   -121.93524062	     49.19970258	    -11.16921287	    191.38649575	   -477.32966933	    -18.71621298	    121.93524062	     -1.58537428	     11.77556138	     -4.90160417	      0.00000000	      0.00000000	      0.00000000	      0.00000000	      0.00000000	      0.00000000	      0.00000000	      0.00000000	      0.00000000	      0.00000000	      0.00000000	      0.00000000	      0.00000000	      0.00000000	      0.00000000	      0.00000000	      0.00000000	      0.00000000	      0.00000000	      0.00000000	      0.00000000	      0.00000000	      0.00000000	      0.00000000	   -152.22501670	   -202.79510020	    195.19634320	     -5.16230691	      7.62720270	      3.90325565	    152.22501670	    202.79510020	   -195.19634320	     82.22613079	     -3.67603995	     60.30039754	      0.00000000	      0.00000000	      0.00000000	      0.00000000	      0.00000000	      0.00000000	      0.00000000	      0.00000000	      0.00000000	      0.00000000	      0.00000000	      0.00000000	      0.00000000	      0.00000000	    733.96431404	    128.49552572	      0.00000000	      0.00000000	     22.33273753	      0.00000000	     47.50959094	    162.28059422
